0.11m3min_grf.mot
version=1
nRows=12
nColumns 19
inDegrees=yes
endheader
time	1_ground_force_vx	1_ground_force_vy	1_ground_force_vz	1_ground_force_px	1_ground_force_py	1_ground_force_pz	1_ground_torque_x	1_ground_torque_y	1_ground_torque_z	2_ground_force_vx	2_ground_force_vy	2_ground_force_vz	2_ground_force_px	2_ground_force_py	2_ground_force_pz	2_ground_torque_x	2_ground_torque_y	2_ground_torque_z
            3.751500	            0.503688	           -0.539520	           -0.278706	           -0.233013	            0.005581	           -0.255695	            0.162558	           -0.083340	            0.114751	            0.097187	           -0.921742	            0.372100	           -0.232311	            0.006130	           -0.833667	           -0.056416	            0.018635	            0.018942
            3.752000	            0.090889	            0.001394	           -0.321219	           -0.233013	            0.005581	           -0.255695	            0.126242	           -0.036757	           -0.034158	            0.283134	           -0.551765	            0.091765	           -0.232311	            0.006130	           -0.833667	           -0.112719	           -0.009524	           -0.094237
            3.752500	            0.274132	           -0.538974	           -0.415705	           -0.233013	            0.005581	           -0.255695	            0.093069	           -0.036844	            0.011359	            0.473172	           -1.287514	            0.042129	           -0.232311	            0.006130	           -0.833667	            0.018932	           -0.056178	           -0.132162
            3.753000	            0.181940	            0.362926	           -0.549180	           -0.233013	            0.005581	           -0.255695	            0.117303	           -0.027965	            0.082587	            0.192737	           -1.472677	            0.041592	           -0.232311	            0.006130	           -0.833667	           -0.056288	           -0.019109	           -0.000043
            3.753500	            0.732870	           -0.359210	           -0.278502	           -0.233013	            0.005581	           -0.255695	            0.124683	           -0.055109	            0.030743	            0.331355	           -0.920227	            0.184288	           -0.232311	            0.006130	           -0.833667	           -0.187581	           -0.076300	           -0.000190
            3.754000	            0.456836	            0.002841	           -0.643121	           -0.233013	            0.005581	           -0.255695	            0.177607	           -0.045995	            0.018909	            0.144599	           -1.104885	            0.136782	           -0.232311	            0.006130	           -0.833667	           -0.075098	           -0.018975	           -0.056586
            3.754500	            0.366109	            0.361585	           -0.228644	           -0.233013	            0.005581	           -0.255695	            0.103556	           -0.101658	            0.052528	           -0.048159	            0.367960	            0.048262	           -0.232311	            0.006130	           -0.833667	           -0.075040	           -0.019446	            0.075365
            3.755000	            0.411904	            0.001259	           -0.276159	           -0.233013	            0.005581	           -0.255695	            0.086650	           -0.110321	           -0.077086	           -0.138412	           -0.554124	            0.326585	           -0.232311	            0.006130	           -0.833667	           -0.112671	           -0.000743	            0.094299
            3.755500	            0.504078	           -0.179775	           -0.093736	           -0.233013	            0.005581	           -0.255695	            0.060169	           -0.036330	           -0.072787	            0.047576	           -0.184481	            0.140107	           -0.232311	            0.006130	           -0.833667	           -0.112763	            0.009180	           -0.037619
            3.756000	            0.273935	            0.542620	           -0.411067	           -0.233013	            0.005581	           -0.255695	            0.167355	            0.037279	           -0.026143	            0.003549	           -0.922583	            0.512924	           -0.232311	            0.006130	           -0.833667	           -0.093969	            0.009181	           -0.018777
            3.756500	            0.504078	           -0.179775	           -0.093736	           -0.233013	            0.005581	           -0.255695	            0.079123	           -0.008919	            0.002476	            0.141379	           -0.184980	            0.374708	           -0.232311	            0.006130	           -0.833667	           -0.018478	           -0.085142	           -0.000296
            3.757000	            0.411985	            0.181328	           -0.229531	           -0.233013	            0.005581	           -0.255695	            0.141059	            0.018776	           -0.001482	            0.097770	           -1.105221	            0.183730	           -0.232311	            0.006130	           -0.833667	            0.000120	           -0.037676	           -0.037835
